<svg width="166" height="17" viewBox="0 0 166 17" fill="none" xmlns="http://www.w3.org/2000/svg">
<path d="M28.793 0V2.21374H32.1558V12.9662H34.5635V2.21374H37.923V0H28.793Z" fill="white"/>
<path d="M37.7453 7.30767C37.9561 6.09368 38.572 5.31156 39.8368 5.31156C40.927 5.31156 41.6812 6.12769 41.7504 7.30767H37.7453ZM35.3574 8.30402C35.3574 11.0789 37.0438 13.2348 40.0311 13.2348C42.3367 13.2348 43.7727 11.8372 44.1054 10.1743H41.7504C41.4869 10.8986 40.9435 11.3407 39.9949 11.3407C38.6412 11.3407 37.8705 10.4532 37.6893 9.01813H44.2437C44.2437 5.69922 42.699 3.41406 39.8006 3.41406C37.1656 3.41406 35.3574 5.553 35.3574 8.31083" fill="white"/>
<path d="M44.6916 8.32493C44.6916 11.0998 46.4669 13.2387 49.3028 13.2387C51.7104 13.2387 53.2024 11.6609 53.3605 9.68514H51.055C51.0156 10.141 50.8036 10.5624 50.465 10.8578C50.1265 11.1532 49.6887 11.2988 49.2468 11.263C47.7877 11.263 47.1026 10.083 47.1026 8.32493C47.1026 6.56686 47.8404 5.38688 49.2797 5.38688C49.6749 5.38175 50.0587 5.52355 50.3611 5.78639C50.6634 6.04922 50.8641 6.41555 50.9265 6.8185H53.2617C52.9324 4.80538 51.5062 3.41797 49.1677 3.41797C46.4274 3.41797 44.6719 5.5569 44.6719 8.33173" fill="white"/>
<path d="M56.2231 0H53.8286V12.9662H56.2165V7.6886C56.2165 6.4202 56.9905 5.54966 58.0445 5.54966C59.0326 5.54966 59.609 6.25698 59.609 7.24993V12.9628H61.9969V6.89287C61.9969 4.85256 60.7486 3.41073 58.8877 3.41073C57.6591 3.41073 56.9115 3.90041 56.2692 4.87976H56.2165L56.2231 0Z" fill="white"/>
<path d="M65.0625 3.6627H62.7207V12.9665H65.1086V7.68892C65.1086 6.42052 65.8826 5.54999 66.9366 5.54999C67.9247 5.54999 68.5011 6.2573 68.5011 7.25025V12.9631H70.889V6.8932C70.889 4.85288 69.6407 3.41106 67.7798 3.41106C67.2419 3.38691 66.708 3.51634 66.2368 3.7851C65.7655 4.05387 65.3752 4.45157 65.1086 4.93449H65.0559L65.0625 3.6627Z" fill="white"/>
<path d="M78.326 8.3249C78.326 10.1374 77.4993 11.3548 76.0435 11.3548C74.5878 11.3548 73.761 10.1408 73.761 8.3249C73.761 6.50902 74.568 5.26442 76.0435 5.26442C77.5191 5.26442 78.326 6.49881 78.326 8.3249ZM71.3369 8.3249C71.3369 11.0997 73.2505 13.2387 76.0435 13.2387C78.8366 13.2387 80.7502 11.0997 80.7502 8.3249C80.7502 5.55007 78.8366 3.41113 76.0435 3.41113C73.2505 3.41113 71.3369 5.56027 71.3369 8.3249Z" fill="white"/>
<path d="M83.6291 0H81.2412V12.9662H83.6291V0Z" fill="white"/>
<path d="M91.1156 8.3249C91.1156 10.1374 90.2889 11.3548 88.8331 11.3548C87.3773 11.3548 86.5506 10.1408 86.5506 8.3249C86.5506 6.50902 87.3575 5.26442 88.8331 5.26442C90.3087 5.26442 91.1156 6.49881 91.1156 8.3249ZM84.1265 8.3249C84.1265 11.0997 86.0401 13.2387 88.8331 13.2387C91.6261 13.2387 93.5397 11.0997 93.5397 8.3249C93.5397 5.55007 91.6261 3.41113 88.8331 3.41113C86.0401 3.41113 84.1298 5.56027 84.1298 8.3249" fill="white"/>
<path d="M100.387 7.90678C100.387 9.284 99.7711 10.4266 98.2626 10.4266C97.0341 10.4266 96.2239 9.50163 96.2239 7.92378C96.2239 6.34594 97.0308 5.38359 98.2429 5.38359C99.6822 5.38359 100.387 6.54317 100.387 7.90338V7.90678ZM94.083 13.2388C94.33 15.0513 95.8385 16.1395 98.2989 16.1395C99.6328 16.1395 100.792 15.7994 101.55 15.0887C102.208 14.4528 102.62 13.5653 102.62 12.2595V3.66292H100.315V4.64227H100.268C99.985 4.23882 99.6085 3.91468 99.1732 3.69915C98.7379 3.48363 98.2574 3.38352 97.7752 3.40788C95.4927 3.40788 93.8755 5.18636 93.8755 7.96119C93.8755 10.736 95.8517 12.4057 97.8443 12.4057C98.2915 12.4233 98.7365 12.3343 99.1449 12.1456C99.5534 11.9569 99.9142 11.6735 100.199 11.3175H100.268V12.3377C100.268 13.6061 99.6097 14.2794 98.2659 14.2794C97.1593 14.2794 96.6487 13.8271 96.4577 13.2592H94.0863" fill="white"/>
<path d="M103.855 16.0128H105.262C107.09 16.0128 107.755 15.2681 108.44 13.2006L111.586 3.66211H109.162L107.897 7.85156C107.617 8.7051 107.37 9.89188 107.37 9.89188H107.334C107.334 9.89188 107.034 8.7119 106.754 7.85156L105.42 3.66211H102.91L105.334 10.2795C105.868 11.6806 106.033 12.2961 106.033 12.8027C106.033 13.5645 105.647 14.0711 104.699 14.0711H103.855V16.0128Z" fill="white"/>
<path d="M144.232 0.813477H141.844V3.02722H144.232V0.813477Z" fill="white"/>
<path d="M117.067 2.28516H120.002C121.266 2.28516 121.978 2.86665 121.978 4.04323C121.978 5.21981 121.293 5.82171 119.959 5.82171H117.067V2.28516ZM122.32 12.9662H125.13L121.994 7.62399C123.575 7.0799 124.478 5.83871 124.478 4.02623C124.484 3.50345 124.388 2.98474 124.195 2.50139C124.002 2.01805 123.716 1.5801 123.354 1.21399C122.617 0.435268 121.668 0 120.061 0H114.57V12.9662H117.067V7.96064H119.405L122.32 12.9662Z" fill="white"/>
<path d="M126.727 7.30767C126.938 6.09368 127.554 5.31156 128.819 5.31156C129.909 5.31156 130.663 6.12769 130.732 7.30767H126.727ZM124.339 8.30402C124.339 11.0789 126.026 13.2382 129.01 13.2382C131.315 13.2382 132.751 11.8406 133.084 10.1777H130.729C130.469 10.8986 129.912 11.3407 128.993 11.3407C127.639 11.3407 126.869 10.4532 126.688 9.01814H133.222C133.222 5.69922 131.677 3.41406 128.779 3.41406C126.144 3.41406 124.336 5.553 124.336 8.31083" fill="white"/>
<path d="M135.873 12.966H138.156L141.502 3.66211H139.111L137.049 9.97349H137.016L134.971 3.66211H132.547L135.873 12.966Z" fill="white"/>
<path d="M144.232 3.66211H141.844V12.966H144.232V3.66211Z" fill="white"/>
<path d="M147.151 7.30756C147.362 6.09357 147.978 5.31145 149.242 5.31145C150.333 5.31145 151.087 6.12758 151.156 7.30756H147.151ZM144.763 8.30392C144.763 11.0788 146.449 13.2381 149.437 13.2381C151.742 13.2381 153.178 11.8405 153.511 10.1776H151.156C150.893 10.8849 150.349 11.3202 149.417 11.3202C148.063 11.3202 147.293 10.4327 147.111 8.99763H153.646C153.646 5.67871 152.101 3.39355 149.203 3.39355C146.568 3.39355 144.76 5.53249 144.76 8.29032" fill="white"/>
<path d="M155.691 12.966H157.848L159.502 6.86881H159.538L161.135 12.966H163.313L166 3.66211H163.681L162.137 9.60283H162.101L160.503 3.66211H158.464L156.956 9.60283H156.92L155.428 3.66211H153.056L155.691 12.966Z" fill="white"/>
<path d="M16.5765 0H14.1919V12.9662H16.5765V0Z" fill="white"/>
<path d="M17.1768 0V2.21374H20.5396V12.9662H22.9472V2.21374H26.3101V0H17.1768Z" fill="white"/>
<path d="M9.60101 0L6.81128 9.43307L3.91616 0H0V12.9662H2.31873V2.72042L5.52675 12.9662H7.97065L11.014 2.72042V12.9662H13.3854V0H9.60101Z" fill="white"/>
</svg>
